# xmcd
#
# Track frame offsets:
#	150
#	15516
#	30764
#	49175
#	62934
#	75610
#	91369
#	105521
#	122195
#	133674
#	147600
#	158371
#	169474
#	183717
#
# Disc length: 2680
#
# Revision: 1
# Processed by: cddbd v1.5.1PL0 Copyright (c) Steve Scherf et al.
# Submitted via: CDex 1.50Beta7
# Normalized: r0:DSETVAR1,TDELIM( - )
#
DISCID=b90a760e
DTITLE=Various Artist - Country Stars
DYEAR=2003
DGENRE=Country
TTITLE0=Billy Ray Cyrus - Achy Breaky Heart
TTITLE1=Gunter Gabriel - Truck Stop, Tom Astor und ich
TTITLE2=Steve Earle - Johnny Come Lately
TTITLE3=Dolly Parton - I Wanna Go Back There
TTITLE4=Don Williams - You're My Best Friend
TTITLE5=George Strait - King of the Mountains
TTITLE6=Tom Astor - Take It Easy - Nimm's leicht
TTITLE7=Kentucky Headhunters - Honky Tonk Walkin'
TTITLE8=Lee Ann Womack - If You're Ever Down In Dallas
TTITLE9=Linda Feller - Jolene
TTITLE10=The Jordanaires and Patsy Cline - San Antonio Rose
TTITLE11=Roger Miller - King of the Road
TTITLE12=Terri Clark - A Little Gasoline
TTITLE13=The Mavericks - What A Crying Shame
EXTD=YEAR: 2003
EXTT0=
EXTT1=
EXTT2=
EXTT3=
EXTT4=
EXTT5=
EXTT6=
EXTT7=
EXTT8=
EXTT9=
EXTT10=
EXTT11=
EXTT12=
EXTT13=
PLAYORDER=
